# xmcd
#
# Track frame offsets: 
#        182
#        12100
#        23822
#        33290
#        47132
#        62225
#        73732
#        88542
#        103027
#        115912
#        131362
#        143147
#
# Disc length: 2052 seconds
#
# Revision: 3
# Processed by: cddbd v1.5.2PL0 Copyright (c) Steve Scherf et al.
# Submitted via: ExactAudioCopyFreeDBPlugin 1.0
#
DISCID=9e08020c
DTITLE=Booker T. and the M.G.'s - In the Christmas Spirit
DYEAR=1966
DGENRE=Holiday
TTITLE0=Jingle Bells
TTITLE1=Santa Claus is Coming to Town
TTITLE2=Winter Wonderland
TTITLE3=White Christmas
TTITLE4=The Christmas Song
TTITLE5=Silver Bells
TTITLE6=Merry Christmas Baby
TTITLE7=Blue Christmas
TTITLE8=Sweet Little Jesus Boy
TTITLE9=Silent Night
TTITLE10=We Three Kings
TTITLE11=We Wish You a Merry Christmas
EXTD=
EXTT0=
EXTT1=
EXTT2=
EXTT3=
EXTT4=
EXTT5=
EXTT6=
EXTT7=
EXTT8=
EXTT9=
EXTT10=
EXTT11=
PLAYORDER=
